<?xml version="1.0" ?><svg width="8.4666669px" height="8.4666669px" viewBox="0 0 8.4666669 8.4666669" id="svg8" version="1.1" xmlns="http://www.w3.org/2000/svg" xmlns:cc="http://creativecommons.org/ns#" xmlns:dc="http://purl.org/dc/elements/1.1/" xmlns:inkscape="http://www.inkscape.org/namespaces/inkscape" xmlns:rdf="http://www.w3.org/1999/02/22-rdf-syntax-ns#" xmlns:sodipodi="http://sodipodi.sourceforge.net/DTD/sodipodi-0.dtd" xmlns:svg="http://www.w3.org/2000/svg"><defs id="defs2"/><g id="layer1" transform="translate(0,-288.53332)"><path d="M 15.996094 1.0039062 C 7.7236777 1.0039062 0.99610868 7.7314657 0.99609375 16.003906 C 0.99608638 24.276347 7.7236618 31.003906 15.996094 31.003906 C 24.268526 31.003906 30.996101 24.276347 30.996094 16.003906 C 30.996079 7.7314657 24.26851 1.0039063 15.996094 1.0039062 z M 15.982422 4.9824219 A 1.0001001 1.0001001 0 0 1 17 6.0019531 L 17 15 L 23.998047 15 A 1.000252 1.000252 0 1 1 23.998047 17 L 15.996094 17 A 1.0001001 1.0001001 0 0 1 15 16.003906 L 15 6.0019531 A 1.0001001 1.0001001 0 0 1 15.982422 4.9824219 z " id="path879" style="color:#1976d2;font-style:normal;font-variant:normal;font-weight:normal;font-stretch:normal;font-size:medium;line-height:normal;font-family:sans-serif;font-variant-ligatures:normal;font-variant-position:normal;font-variant-caps:normal;font-variant-numeric:normal;font-variant-alternates:normal;font-feature-settings:normal;text-indent:0;text-align:start;text-decoration:none;text-decoration-line:none;text-decoration-style:solid;text-decoration-color:#1976d2;letter-spacing:normal;word-spacing:normal;text-transform:none;writing-mode:lr-tb;direction:ltr;text-orientation:mixed;dominant-baseline:auto;baseline-shift:baseline;text-anchor:start;white-space:normal;shape-padding:0;clip-rule:nonzero;display:inline;overflow:visible;visibility:visible;opacity:1;isolation:auto;mix-blend-mode:normal;color-interpolation:sRGB;color-interpolation-filters:linearRGB;solid-color:#1976d2;solid-opacity:1;vector-effect:none;fill:#1976d2;fill-opacity:1;fill-rule:nonzero;stroke:none;stroke-width:1.99999988;stroke-linecap:round;stroke-linejoin:round;stroke-miterlimit:4;stroke-dasharray:none;stroke-dashoffset:0;stroke-opacity:1;paint-order:stroke fill markers;color-rendering:auto;image-rendering:auto;shape-rendering:auto;text-rendering:auto;enable-background:accumulate" transform="matrix(0.26458333,0,0,0.26458333,0,288.53332)"/></g></svg>